Coordinates
version=1
nRows=11
nColumns=40
inDegrees=yes

Units are S.I. units (second, meters, Newtons, ...)
If the header above contains a line with 'inDegrees', this indicates whether rotational values are in degrees (yes) or radians (no).

endheader
time	pelvis_tilt	pelvis_list	pelvis_rotation	pelvis_tx	pelvis_ty	pelvis_tz	hip_flexion_r	hip_adduction_r	hip_rotation_r	knee_angle_r	knee_angle_r_beta	ankle_angle_r	subtalar_angle_r	mtp_angle_r	hip_flexion_l	hip_adduction_l	hip_rotation_l	knee_angle_l	knee_angle_l_beta	ankle_angle_l	subtalar_angle_l	mtp_angle_l	lumbar_extension	lumbar_bending	lumbar_rotation	arm_flex_r	arm_add_r	arm_rot_r	elbow_flex_r	pro_sup_r	wrist_flex_r	wrist_dev_r	arm_flex_l	arm_add_l	arm_rot_l	elbow_flex_l	pro_sup_l	wrist_flex_l	wrist_dev_l
      1.90000000	     -4.89301868	     -4.73424926	      0.41404259	     -0.24058191	      0.98691081	     -1.00160115	     18.65457413	     -7.43505381	      6.34498646	     84.47477451	      1.47436295	    -22.19326413	      0.00000000	      0.00000000	      9.40626420	     -1.42438423	     -1.80045369	     12.80274304	      0.22345002	     -4.23847107	      0.00000000	      0.00000000	     -4.87987373	     -3.00016075	      7.28781525	     58.80370514	     -8.93347844	     22.40636907	     86.82294789	     74.80134259	      0.00000000	      0.00000000	     66.10583297	    -15.89189032	     35.89811049	     84.68698980	     69.30037979	      0.00000000	      0.00000000
      1.90500000	     -4.97670228	     -4.73970744	      0.34385932	     -0.24112030	      0.98672398	     -1.00150830	     18.76118826	     -7.38454164	      6.41551653	     84.48927869	      1.47461610	    -22.41840444	      0.00000000	      0.00000000	      9.63821191	     -1.45110163	     -1.80500257	     13.02919816	      0.22740241	     -4.13275749	      0.00000000	      0.00000000	     -4.90883850	     -2.97354535	      7.38348867	     58.93596078	     -8.94830297	     22.37269987	     86.75452811	     75.03363754	      0.00000000	      0.00000000	     66.13650304	    -15.89127263	     35.86321541	     84.67089955	     69.27628856	      0.00000000	      0.00000000
      1.91000000	     -5.08579683	     -4.73463705	      0.30614961	     -0.24190591	      0.98645357	     -1.00133599	     18.90355200	     -7.36617056	      6.40007374	     84.58292886	      1.47625060	    -22.25235557	      0.00000000	      0.00000000	      9.99585931	     -1.48652020	     -1.99420381	     13.40247588	      0.23391733	     -4.05088816	      0.00000000	      0.00000000	     -4.95651849	     -3.00618447	      7.39798908	     59.06697648	     -8.97208625	     22.43923154	     86.76330861	     75.41142144	      0.00000000	      0.00000000	     66.32396597	    -15.92700451	     35.89584672	     84.63835207	     69.41841330	      0.00000000	      0.00000000
      1.91500000	     -5.19739471	     -4.79322774	      0.32850601	     -0.24264102	      0.98623849	     -1.00133559	     19.01140366	     -7.28424163	      6.35069306	     84.58261200	      1.47624507	    -22.35220271	      0.00000000	      0.00000000	     10.32290527	     -1.55767252	     -1.88934787	     13.71451260	      0.23936340	     -4.00304311	      0.00000000	      0.00000000	     -4.98038408	     -2.93743870	      7.39446296	     59.21805946	     -8.95559779	     22.49792316	     86.67011086	     75.56361429	      0.00000000	      0.00000000	     66.42390878	    -15.91011704	     35.89636941	     84.62148098	     69.20801718	      0.00000000	      0.00000000
      1.92000000	     -5.27906854	     -4.78270613	      0.28693795	     -0.24326023	      0.98604177	     -1.00132693	     19.08714238	     -7.29539368	      6.35149499	     84.60639717	      1.47666020	    -22.27645216	      0.00000000	      0.00000000	     10.57840192	     -1.56458524	     -1.95896475	     13.95354206	      0.24353525	     -3.95621233	      0.00000000	      0.00000000	     -5.04384797	     -2.94007359	      7.45624056	     59.31230977	     -8.99457052	     22.48122313	     86.70252581	     76.03507242	      0.00000000	      0.00000000	     66.51098001	    -15.91105101	     35.89507591	     84.62864073	     69.33086382	      0.00000000	      0.00000000
      1.92500000	     -5.43419208	     -4.77557417	      0.23611180	     -0.24389445	      0.98572762	     -1.00126324	     19.26205155	     -7.28821147	      6.36737052	     84.62062329	      1.47690849	    -22.39640909	      0.00000000	      0.00000000	     10.88906858	     -1.56621473	     -1.93114738	     14.16731827	      0.24726635	     -3.86650690	      0.00000000	      0.00000000	     -4.99739145	     -2.94306449	      7.52578831	     59.40468968	     -8.97907028	     22.44260357	     86.59301229	     76.21205388	      0.00000000	      0.00000000	     66.55488306	    -15.87440762	     35.83932041	     84.56971895	     69.27676974	      0.00000000	      0.00000000
      1.93000000	     -5.63513814	     -4.85302235	      0.20885463	     -0.24479187	      0.98528351	     -1.00107921	     19.51272576	     -7.16200446	      6.35055527	     84.68776619	      1.47808036	    -22.36972145	      0.00000000	      0.00000000	     11.37591701	     -1.68402039	     -1.98836769	     14.58959146	      0.25463641	     -3.69025729	      0.00000000	      0.00000000	     -4.94584394	     -2.85657600	      7.54996291	     59.58549905	     -8.92858025	     22.53660007	     86.49769802	     75.37437359	      0.00000000	      0.00000000	     66.69669446	    -15.86614418	     35.88738279	     84.54500997	     68.52654346	      0.00000000	      0.00000000
      1.93500000	     -5.68161619	     -4.82823550	      0.21613508	     -0.24535839	      0.98512874	     -1.00116773	     19.50145003	     -7.20289801	      6.28862828	     84.71239472	      1.47851021	    -22.12846779	      0.00000000	      0.00000000	     11.58283014	     -1.66222106	     -2.00244929	     14.80115947	      0.25832897	     -3.76178659	      0.00000000	      0.00000000	     -5.04245516	     -2.88792146	      7.55080127	     59.67736019	     -8.98864631	     22.52289736	     86.52927249	     75.87103201	      0.00000000	      0.00000000	     66.84586506	    -15.85238816	     35.88108387	     84.45336589	     68.72729796	      0.00000000	      0.00000000
      1.94000000	     -5.83094043	     -4.86577299	      0.22490271	     -0.24603740	      0.98485627	     -1.00117341	     19.63586590	     -7.09381930	      6.28816028	     84.67856789	      1.47791982	    -22.47281077	      0.00000000	      0.00000000	     11.91607386	     -1.71318101	     -1.94118264	     15.03797361	      0.26246215	     -3.67648818	      0.00000000	      0.00000000	     -5.02471602	     -2.84180315	      7.57734555	     59.76717033	     -8.97284410	     22.47724468	     86.46588294	     76.36911350	      0.00000000	      0.00000000	     66.86265908	    -15.76574107	     35.82822841	     84.42488902	     68.78045393	      0.00000000	      0.00000000
      1.94500000	     -5.94422098	     -4.87507486	      0.21675225	     -0.24687904	      0.98452818	     -1.00105904	     19.75295097	     -7.06727878	      6.26154995	     84.75416091	      1.47923916	    -22.15485147	      0.00000000	      0.00000000	     12.34190558	     -1.75995030	     -2.02084254	     15.54492637	      0.27131015	     -3.59611071	      0.00000000	      0.00000000	     -5.08484302	     -2.86399406	      7.65705873	     59.90475901	     -9.07191654	     22.41729879	     86.49240823	     78.24172631	      0.00000000	      0.00000000	     67.07872437	    -15.44839601	     35.53303069	     83.98751952	     71.19498768	      0.00000000	      0.00000000
      1.95000000	     -6.10805261	     -4.91465597	      0.21015226	     -0.24771295	      0.98416575	     -1.00093351	     19.89326731	     -6.99802924	      6.24231239	     84.73968624	      1.47898653	    -22.24242870	      0.00000000	      0.00000000	     12.78728616	     -1.83820227	     -1.98687613	     15.94570452	      0.27830505	     -3.54080947	      0.00000000	      0.00000000	     -5.05609577	     -2.82432401	      7.64438624	     60.03671943	     -9.03628201	     22.46329730	     86.38072922	     78.32488190	      0.00000000	      0.00000000	     67.16335516	    -15.44887786	     35.50278813	     83.97641504	     71.07933615	      0.00000000	      0.00000000
